<svg xmlns="http://www.w3.org/2000/svg" width="24" height="24" viewBox="0 0 24 24" fill="none" aria-hidden="true">
  <path fill="currentColor" d="M12 2C6.48 2 2 6.58 2 12.26c0 4.52 2.87 8.35 6.85 9.7.5.09.68-.22.68-.49 0-.24-.01-.87-.01-1.71-2.78.62-3.37-1.2-3.37-1.2-.46-1.2-1.13-1.52-1.13-1.52-.92-.64.07-.63.07-.63 1.02.07 1.56 1.07 1.56 1.07.9 1.58 2.36 1.13 2.94.86.09-.67.35-1.13.63-1.39-2.22-.26-4.56-1.14-4.56-5.07 0-1.12.39-2.04 1.03-2.76-.1-.26-.45-1.3.1-2.7 0 0 .84-.27 2.75 1.05A9.29 9.29 0 0 1 12 6.82c.85 0 1.7.12 2.49.35 1.9-1.32 2.74-1.05 2.74-1.05.55 1.4.2 2.44.1 2.7.64.72 1.03 1.64 1.03 2.76 0 3.94-2.34 4.8-4.57 5.06.36.33.68.96.68 1.94 0 1.4-.01 2.53-.01 2.87 0 .27.18.58.69.48A10.02 10.02 0 0 0 22 12.26C22 6.58 17.52 2 12 2Z"/>
</svg>


